<svg width="108" height="129" viewBox="0 0 108 129" fill="none" xmlns="http://www.w3.org/2000/svg">
<g clip-path="url(#clip0_57_113)">
<path d="M61.0404 76.5495L26.5856 76.5069C23.0474 76.5695 19.4474 75.6986 16.1596 73.7938C6.50825 68.2023 3.20145 55.8183 8.77367 46.1335C14.3459 36.4486 26.687 33.1304 36.3384 38.7219C39.6364 40.6326 42.1935 43.3364 43.9087 46.4546L61.0404 76.5495ZM61.0404 76.5495C73.9241 76.5495 84.3685 66.0689 84.3685 53.1405V29.7315C84.3685 16.8031 94.8128 6.32251 107.697 6.32251M61.0404 76.5495C73.9241 76.5495 84.3685 87.0301 84.3685 99.9585C84.3685 112.887 94.8128 123.367 107.697 123.367M61.0404 76.5495V6.43959L5.12415 131.306M61.0404 76.5495V128.72" stroke="#1E1C1B" stroke-width="10.7744" stroke-linejoin="round"/>
</g>
<defs>
<clipPath id="clip0_57_113">
<rect width="107.313" height="128" fill="white" transform="translate(0.383423 0.719971)"/>
</clipPath>
</defs>
</svg>
