<svg width="35" height="35" viewBox="0 0 35 35" fill="none" xmlns="http://www.w3.org/2000/svg">
<path fill-rule="evenodd" clip-rule="evenodd" d="M32.4071 0H2.58271C1.155 0 0 1.12875 0 2.52146V32.4785C0 33.8727 1.155 35 2.58271 35H32.4071C33.8333 35 35 33.8727 35 32.4785V2.52146C35 1.12875 33.8333 0 32.4071 0ZM20.125 7H14.875C9.92525 7 7.45038 7 5.91269 8.53769C4.375 10.0754 4.375 12.5503 4.375 17.5C4.375 22.4497 4.375 24.9246 5.91269 26.4623C7.45038 28 9.92525 28 14.875 28H20.125C25.0747 28 27.5496 28 29.0873 26.4623C30.625 24.9246 30.625 22.4497 30.625 17.5C30.625 12.5503 30.625 10.0754 29.0873 8.53769C27.5496 7 25.0747 7 20.125 7ZM26.0052 13.0062C26.4228 12.6582 26.4793 12.0375 26.1312 11.6198C25.7832 11.2022 25.1625 11.1457 24.7448 11.4938L21.9113 13.8551C20.6868 14.8755 19.8366 15.5817 19.1189 16.0433C18.4241 16.4901 17.9529 16.6401 17.5 16.6401C17.0471 16.6401 16.5759 16.4901 15.8811 16.0433C15.1634 15.5817 14.3132 14.8755 13.0887 13.8551L10.2552 11.4938C9.83753 11.1457 9.21682 11.2022 8.86878 11.6198C8.52074 12.0375 8.57717 12.6582 8.99482 13.0062L11.8777 15.4086C13.0411 16.3781 13.984 17.1639 14.8162 17.6991C15.6831 18.2567 16.5273 18.6089 17.5 18.6089C18.4727 18.6089 19.3169 18.2567 20.1838 17.6991C21.016 17.1639 21.9589 16.3781 23.1223 15.4086L26.0052 13.0062Z" fill="#134361"/>
</svg>
