<svg width="36" height="35" viewBox="0 0 36 35" fill="none" xmlns="http://www.w3.org/2000/svg">
<path fill-rule="evenodd" clip-rule="evenodd" d="M32.5736 0H2.7493C1.3216 0 0.166597 1.12768 0.166597 2.51907V32.4478C0.166597 33.8406 1.3216 34.9669 2.7493 34.9669H12.6989C13.1537 34.8568 13.3314 34.4607 13.3314 34.1036C13.3314 33.9306 13.3286 33.6422 13.3248 33.2605C13.3194 32.7023 13.312 31.9449 13.3086 31.0578C8.43799 32.1372 7.4126 28.6537 7.4126 28.6537C6.61507 26.5823 5.47005 26.028 5.47005 26.028C3.8807 24.9194 5.58968 24.9427 5.58968 24.9427C7.34424 25.0711 8.26709 26.7866 8.26709 26.7866C9.82796 29.529 12.363 28.7354 13.3599 28.2803C13.5194 27.1191 13.9751 26.3314 14.4707 25.8821C10.5856 25.4328 6.50114 23.8924 6.50114 17.0246C6.50114 15.0641 7.18473 13.4653 8.30127 12.2108C8.12467 11.7615 7.52083 9.93511 8.47217 7.46691C8.47217 7.46691 9.9419 6.98844 13.2858 9.30493C14.6815 8.90815 16.1797 8.70976 17.6665 8.70393C19.1533 8.70976 20.6515 8.90815 22.0472 9.30493C25.3911 6.98844 26.8551 7.46691 26.8551 7.46691C27.8122 9.93511 27.214 11.7615 27.0317 12.2108C28.154 13.4653 28.8262 15.0641 28.8262 17.0246C28.8262 23.9099 24.736 25.4212 20.8395 25.8705C21.4661 26.4189 22.0244 27.5159 22.0244 29.1847C22.0244 30.7881 22.0168 32.1828 22.0117 33.1073C22.0092 33.5656 22.0073 33.9083 22.0073 34.1036C22.0073 34.4555 22.1768 34.8515 22.6199 34.9669H32.5736C33.9998 34.9669 35.1665 33.8406 35.1665 32.4478V2.51907C35.1665 1.12768 33.9998 0 32.5736 0Z" fill="#134361"/>
</svg>
