<svg width="36" height="35" viewBox="0 0 36 35" fill="none" xmlns="http://www.w3.org/2000/svg">
<path fill-rule="evenodd" clip-rule="evenodd" d="M33.0737 0H3.24933C1.82163 0 0.666626 1.12875 0.666626 2.52146V32.4785C0.666626 33.8727 1.82163 35 3.24933 35H33.0737C34.5 35 35.6666 33.8727 35.6666 32.4785V2.52146C35.6666 1.12875 34.5 0 33.0737 0ZM6.72587 16.9153C13.3025 13.9518 17.688 11.998 19.8822 11.054C26.1474 8.35882 27.4491 7.89064 28.2978 7.87516C28.4844 7.87178 28.9016 7.91961 29.1719 8.14645C29.4002 8.338 29.463 8.59675 29.493 8.77836C29.5231 8.95995 29.5605 9.37365 29.5306 9.69692C29.1911 13.3866 27.7221 22.3402 26.9748 26.4725C26.6586 28.221 26.0359 28.8072 25.433 28.8646C24.3957 28.9634 23.5559 28.3442 22.6211 27.6549L22.6141 27.6498C22.3706 27.4704 22.1208 27.2863 21.8592 27.1089C20.8227 26.4062 20.0217 25.8419 19.2185 25.2761C18.4831 24.7581 17.746 24.2389 16.8246 23.6111C14.9076 22.3044 15.7101 21.5043 16.7802 20.4373L16.7849 20.4327C16.9565 20.2615 17.1353 20.0832 17.3105 19.8948C17.3895 19.81 17.7757 19.4387 18.3201 18.9152C20.0666 17.2358 23.4416 13.9905 23.5267 13.615C23.5408 13.5534 23.5536 13.3238 23.4218 13.2025C23.2898 13.0812 23.0953 13.1227 22.9546 13.1557C22.7555 13.2024 19.5836 15.3709 13.4388 19.6609C12.5385 20.3004 11.723 20.6119 10.9923 20.5956C10.1868 20.5777 8.63734 20.1247 7.48547 19.7373C7.32824 19.6846 7.17458 19.6345 7.0258 19.586L6.99203 19.575C5.82125 19.1942 4.96148 18.9146 5.04756 18.2045C5.09849 17.7843 5.65792 17.3546 6.72587 16.9153Z" fill="#134361"/>
</svg>
