<svg width="36" height="35" viewBox="0 0 36 35" fill="none" xmlns="http://www.w3.org/2000/svg">
<path fill-rule="evenodd" clip-rule="evenodd" d="M32.7404 0H2.91602C1.48831 0 0.333313 1.12875 0.333313 2.52146V32.4785C0.333313 33.8727 1.48831 35 2.91602 35H32.7404C34.1666 35 35.3333 33.8727 35.3333 32.4785V2.52146C35.3333 1.12875 34.1666 0 32.7404 0ZM23.1869 5.36029C24.774 6.01516 26.2146 6.97699 27.4255 8.19003C28.6425 9.39607 29.6071 10.8303 30.2635 12.4097C30.92 13.9892 31.2552 15.6825 31.2499 17.3917C31.2466 24.5645 25.3825 30.3997 18.1799 30.3997H18.1744C15.9923 30.3994 13.8451 29.8549 11.929 28.8159L4.99999 30.625L6.85504 23.8842C5.71102 21.9122 5.10988 19.6744 5.10988 17.3819C5.11318 10.2102 10.9762 4.37504 18.1799 4.37504C19.898 4.37054 21.5998 4.70543 23.1869 5.36029Z" fill="#134361"/>
<path d="M24.1385 20.1053C23.8121 19.9424 22.2065 19.157 21.9076 19.0477C21.6076 18.9394 21.39 18.8858 21.1713 19.2117C20.9548 19.5366 20.3284 20.2683 20.1383 20.4849C19.9481 20.7025 19.7569 20.7288 19.4305 20.5669C19.3761 20.5395 19.3013 20.5072 19.2089 20.4671C18.7474 20.2673 17.8432 19.8758 16.804 18.9536C15.8336 18.0917 15.1775 17.0275 14.9874 16.7016C14.7973 16.3767 14.9676 16.2006 15.1303 16.0388C15.2295 15.9407 15.3438 15.8024 15.4575 15.6648C15.5125 15.5982 15.5674 15.5317 15.6204 15.47C15.7583 15.3098 15.8182 15.1883 15.8994 15.024C15.9146 14.9932 15.9305 14.9608 15.9479 14.9264C16.0567 14.7099 16.0028 14.5206 15.9204 14.3577C15.8638 14.2456 15.5373 13.4539 15.2507 12.7587C15.1205 12.4429 14.9986 12.147 14.9138 11.9438C14.6794 11.3858 14.4426 11.3865 14.2527 11.3871L14.2384 11.3871C14.2178 11.3872 14.1979 11.387 14.1786 11.386C13.9884 11.3772 13.7708 11.375 13.5522 11.375C13.3346 11.375 12.9807 11.456 12.6818 11.7819C12.6626 11.8027 12.6412 11.8254 12.6179 11.8502C12.2781 12.2109 11.5388 12.9957 11.5388 14.4933C11.5388 16.0735 12.6817 17.6013 12.8657 17.8472L12.8719 17.8555C12.8828 17.87 12.9028 17.8983 12.9311 17.9388C13.3273 18.5034 15.3947 21.4497 18.4513 22.7631C19.2305 23.0978 19.8382 23.298 20.313 23.4467C21.0955 23.695 21.8076 23.66 22.3692 23.5758C22.9967 23.4828 24.3012 22.7894 24.5737 22.0303C24.8462 21.2713 24.8462 20.6205 24.7638 20.4849C24.6982 20.3754 24.5446 20.3016 24.3158 20.1916C24.261 20.1653 24.2018 20.1368 24.1385 20.1053Z" fill="#134361"/>
</svg>
